<svg version="1" xmlns="http://www.w3.org/2000/svg" width="86.667" height="86.667" viewBox="0 0 65.000000 65.000000"><path d="M28.5.8c-3.4.5-6.5 2.5-6.5 3.9C22 6.6 31 20 32.2 20c.5 0 1-1.9 2.1-8.5.2-1.1.9-3.7 1.6-5.8.7-2.1 1-4.1.7-4.5-.7-.7-5.2-.9-8.1-.4zM39.2 1.9c-1.5.9-4.8 18.6-3.4 17.9.4-.2 3.5-2.1 6.9-4.3 5.1-3.2 6.2-4.4 5.7-6-.7-2.6-3.9-7-5-7-.5 0-1.4-.3-1.9-.7-.6-.4-1.6-.3-2.3.1zM13.7 6.9c-2 1.6-4.6 3.9-5.6 5.2-2.2 2.8-6.3 10.1-5.9 10.3 1.3.7 8.9 2.2 9.3 1.8.3-.3.5-1.3.5-2.3 0-1 1.6-5.2 3.5-9.5 1.9-4.2 3.5-7.8 3.5-8 0-1-1.8-.1-5.3 2.5zM49 6.9c0 2.5 1.3 3.8 3.1 3.4 1.9-.5 1.9-.7.3-2.4-1.8-2-3.4-2.5-3.4-1zM17.6 13.4c-1.4 3-2.8 6.9-3 8.8-.5 3.2-.3 3.4 5.7 6.4l6.3 3 2.7-3.8 2.7-3.9-3.2-4.2c-1.8-2.3-3.6-4.4-3.9-4.7-.3-.3-1.4-2-2.3-3.8-.9-1.7-1.8-3.2-2.1-3.2-.2 0-1.5 2.4-2.9 5.4zM52.8 12.2c-1.3 1-1.5 2.2-.9 6 .9 5.8-.7 10.3-4.4 12-2.2 1-3.3.8-7.1-1-2.4-1.2-4.7-2.2-5-2.2-.7 0 .3 5.3 1.9 9.7.9 2.8 1.3 3 3.5 2.2 1.4-.5 4-1.2 6-1.5 8.7-1.4 8.2-.9 10.9-9.6 2.9-9.4 4-6.7 1.3 3.2-1.4 4.9-1.3 5.1 2 4.8 1.9-.1 3-.8 3.1-1.8.1-.8.2-2.2.3-3 .1-.8-.3-2.9-.7-4.5-.5-1.7-.9-3.6-1-4.3 0-.6-.8-1.2-1.7-1.2-1.3 0-1.6-.6-1.3-2.3.3-1.3-.4-3.3-1.7-5-2.4-3.1-3-3.2-5.2-1.5z"/><path d="M42.2 18.7c-7 5-7 5.8-.2 8.6 4.1 1.7 7.9.7 8.1-2 .3-4.5-.1-9.7-.8-10.4-.4-.4-3.7 1.3-7.1 3.8zM1.4 26.1c-1.9 3.1 0 17.1 2.9 20.6.9 1.3 6.9 1.8 7.9.8.3-.4.1-2.5-.4-4.8-.6-2.3-1-6.7-1-9.8l.1-5.6-3.8-1.2c-4.7-1.4-4.8-1.4-5.7 0zM13.3 29.6c-.7 2 .5 14.2 1.7 16.5 1.8 3.2 5 .9 7.7-5.7l2.4-5.9-2.8-2.2c-4.2-3.4-8.2-4.6-9-2.7zM29.8 31c-1.1 1.9-1.3 3.2-.7 3.6 1.8 1.1 2.7 4.8 1.8 7.2-.8 2.2-.8 2.2 2.1.7 2.8-1.5 3.4-3.4 1.9-6-.4-.6-.9-2.7-1.3-4.8-.8-4.5-1.6-4.6-3.8-.7zM25.4 39.7c-.4 1.6-1.1 3.4-1.7 4-1.6 2.1 2.7 1.6 4.5-.5 1.1-1.2 1.3-2.4.7-4-1.1-3-2.7-2.8-3.5.5zM57 38.2c-1.1.4-2 1.4-2 2.2 0 .8-1.8 3.8-4.1 6.6l-4.1 5.2 2.3 2.4c1.2 1.3 2.6 2.4 3 2.4 2.6 0 9.9-11 11.4-17.2.7-2.5.5-2.8-1.9-2.6-1.4.1-3.4.6-4.6 1zM44.9 40.3c-1.9.5-3.8 1.2-4.3 1.7-1 1 3.3 7 5 7 1.2 0 7.4-8 7.4-9.4 0-.7-3.7-.4-8.1.7zM32.4 45.6c-7 4.7-8.8 8.2-5.8 11.5 1.4 1.5 2 1.6 5.2.4 4.6-1.6 11.4-5.5 11-6.4-.9-1.9-5.4-8.1-5.9-8.1-.3 0-2.4 1.2-4.5 2.6z"/><path d="M23.3 48.1c-1 1.3-1.6 3.7-2.7 10.1-.4 2.1-.1 2.8 1.2 2.8 2.5 0 5-2 3.4-2.7-.6-.2-1-.9-.6-1.4.3-.5 0-.9-.5-.9-1.4 0-1.4-4.3 0-5.7.6-.6.9-1.7.7-2.3-.3-.9-.7-.9-1.5.1zM7.5 50c-1.3.4-1 1.2 1.7 4.1 4.2 4.5 7.8 6.6 7.8 4.5 0-.8-.4-1.7-.9-2-.5-.3-1.2-2.2-1.5-4.1-.6-2.9-1.1-3.4-3.1-3.3-1.3.1-3.1.5-4 .8zM16.4 50.7c1.5 5.5 1.8 6.4 2.3 5.9.3-.2.7-2.1 1-4 .4-3.2.2-3.6-1.7-3.6-1.6 0-2 .5-1.6 1.7zM39.2 56.6c-5.5 2.8-5.9 3.3-4 4 4.9 1.5 10.4 1.2 12.8-.7l2.5-1.8-2.6-2.4-2.5-2.4-6.2 3.3zM25.5 62.4c-2.2 1.7-3 1.5 8.3 1.9 4.1.2 8.7-1.1 5.2-1.4-2.7-.3-5.4-.7-8.5-1.4-2-.4-3.7-.1-5 .9z"/></svg>